<mxfile host="app.diagrams.net" agent="Mozilla/5.0 (Windows NT 10.0; Win64; x64) AppleWebKit/537.36 (KHTML, like Gecko) Chrome/136.0.0.0 Safari/537.36 Edg/136.0.0.0" version="26.2.14">
  <diagram name="Page-1" id="c37626ed-c26b-45fb-9056-f9ebc6bb27b6">
    <mxGraphModel dx="1418" dy="820" grid="1" gridSize="10" guides="1" tooltips="1" connect="1" arrows="1" fold="1" page="1" pageScale="1" pageWidth="1100" pageHeight="850" background="none" math="0" shadow="0">
      <root>
        <mxCell id="0" />
        <mxCell id="1" parent="0" /><mxCell id="MPLS-5" value="" style="ellipse;whiteSpace=wrap;html=1;textShadow=0;labelBorderColor=none;labelBackgroundColor=none;opacity=45;fillColor=#dae8fc;strokeColor=#6c8ebf;" vertex="1" parent="1">
          <mxGeometry x="-121.0" y="-70" width="490" height="220" as="geometry" />
        </mxCell>
        <mxCell id="MPLS-5-Texto" value="VSI" style="text;html=1;align=center;verticalAlign=middle;whiteSpace=wrap;rounded=0;" vertex="1" parent="1">
          <mxGeometry x="77.0" y="-60" width="95" height="30" as="geometry" />
        </mxCell><mxCell id="ROUTER-0-porta-a" value="1" style="text;html=1;align=right;verticalAlign=middle;whiteSpace=wrap;rounded=0;" parent="1" vertex="1">
          <mxGeometry x="-100" y="-5" width="90" height="30" as="geometry" />
        </mxCell>
        <mxCell id="ROUTER-0-porta-b" value="1" style="text;html=1;align=left;verticalAlign=middle;whiteSpace=wrap;rounded=0;" parent="1" vertex="1">
          <mxGeometry x="60" y="-5" width="90" height="30" as="geometry" />
        </mxCell>
        <mxCell id="ROUTER-0" value="" style="sketch=0;points=[[0.5,0,0],[1,0.5,0],[0.5,1,0],[0,0.5,0],[0.145,0.145,0],[0.8555,0.145,0],[0.855,0.8555,0],[0.145,0.855,0]];verticalLabelPosition=bottom;html=1;verticalAlign=top;aspect=fixed;align=center;pointerEvents=1;shape=mxgraph.cisco19.rect;prIcon=router;fillColor=#FAFAFA;strokeColor=#005073;shadow=1;" parent="1" vertex="1">
          <mxGeometry x="0" y="0" width="50" height="50" as="geometry" />
        </mxCell>
        <mxCell id="ROUTER-0-desc-linha1" value="1" style="text;html=1;align=center;verticalAlign=middle;whiteSpace=wrap;rounded=0;" vertex="1" parent="1">
          <mxGeometry x="-85" y="50" width="220" height="30" as="geometry" />
        </mxCell>
        <mxCell id="ROUTER-0-desc-linha2" value="1.1.1.1" style="text;html=1;align=center;verticalAlign=middle;whiteSpace=wrap;rounded=0;" vertex="1" parent="1">
          <mxGeometry x="-85" y="70" width="220" height="30" as="geometry" />
        </mxCell><mxCell id="SWITCH-1-porta-b" value="2" style="text;html=1;align=left;verticalAlign=middle;whiteSpace=wrap;rounded=0;" parent="1" vertex="1">
          <mxGeometry x="260" y="-5" width="90" height="30" as="geometry" />
        </mxCell>
        <mxCell id="SWITCH-1" value="" style="sketch=0;points=[[0.015,0.015,0],[0.985,0.015,0],[0.985,0.985,0],[0.015,0.985,0],[0.25,0,0],[0.5,0,0],[0.75,0,0],[1,0.25,0],[1,0.5,0],[1,0.75,0],[0.75,1,0],[0.5,1,0],[0.25,1,0],[0,0.75,0],[0,0.5,0],[0,0.25,0]];verticalLabelPosition=bottom;html=1;verticalAlign=top;aspect=fixed;align=center;pointerEvents=1;shape=mxgraph.cisco19.rect;prIcon=l2_switch;fillColor=#FAFAFA;strokeColor=#005073;shadow=1;" parent="1" vertex="1">
          <mxGeometry x="200" y="0" width="50" height="50" as="geometry" />
        </mxCell>
        <mxCell id="SWITCH-1-porta-a" value="2" style="text;html=1;align=right;verticalAlign=middle;whiteSpace=wrap;rounded=0;" parent="1" vertex="1">
          <mxGeometry x="100" y="-5" width="90" height="30" as="geometry" />
        </mxCell>
        <mxCell id="SWITCH-1-desc-linha1" value="2.2.2.2" style="text;html=1;align=center;verticalAlign=middle;whiteSpace=wrap;rounded=0;" vertex="1" parent="1">
          <mxGeometry x="115" y="50" width="220" height="30" as="geometry" />
        </mxCell>
        <mxCell id="SWITCH-1-desc-linha2" value="2.2.2.2" style="text;html=1;align=center;verticalAlign=middle;whiteSpace=wrap;rounded=0;" vertex="1" parent="1">
          <mxGeometry x="115" y="70" width="220" height="30" as="geometry" />
        </mxCell><mxCell id="L3SWITCH-2-porta-a" value="3" style="text;html=1;align=right;verticalAlign=middle;whiteSpace=wrap;rounded=0;" parent="1" vertex="1">
          <mxGeometry x="300" y="-5" width="90" height="30" as="geometry" />
        </mxCell>
        <mxCell id="L3SWITCH-2-porta-b" value="3" style="text;html=1;align=left;verticalAlign=middle;whiteSpace=wrap;rounded=0;" parent="1" vertex="1">
          <mxGeometry x="460" y="-5" width="90" height="30" as="geometry" />
        </mxCell>
        <mxCell id="L3SWITCH-2" value="" style="sketch=0;points=[[0.015,0.015,0],[0.985,0.015,0],[0.985,0.985,0],[0.015,0.985,0],[0.25,0,0],[0.5,0,0],[0.75,0,0],[1,0.25,0],[1,0.5,0],[1,0.75,0],[0.75,1,0],[0.5,1,0],[0.25,1,0],[0,0.75,0],[0,0.5,0],[0,0.25,0]];verticalLabelPosition=bottom;html=1;verticalAlign=top;aspect=fixed;align=center;pointerEvents=1;shape=mxgraph.cisco19.rect;prIcon=l3_switch;fillColor=#FAFAFA;strokeColor=#005073;shadow=1;" parent="1" vertex="1">
          <mxGeometry x="400" y="0" width="50" height="50" as="geometry" />
        </mxCell>
        <mxCell id="L3SWITCH-2-desc-linha1" value="3" style="text;html=1;align=center;verticalAlign=middle;whiteSpace=wrap;rounded=0;" vertex="1" parent="1">
          <mxGeometry x="315" y="50" width="220" height="30" as="geometry" />
        </mxCell>
        <mxCell id="L3SWITCH-2-desc-linha2" value="3.3.3.3" style="text;html=1;align=center;verticalAlign=middle;whiteSpace=wrap;rounded=0;" vertex="1" parent="1">
          <mxGeometry x="315" y="70" width="220" height="30" as="geometry" />
        </mxCell><mxCell id="SETA-3" style="edgeStyle=orthogonalEdgeStyle;rounded=0;orthogonalLoop=1;jettySize=auto;html=1;exitX=1;exitY=0.5;exitDx=0;exitDy=0;exitPerimeter=0;entryX=0;entryY=0.5;entryDx=0;entryDy=0;entryPerimeter=0;startArrow=classic;startFill=1;" edge="1" parent="1" source="ROUTER-0" target="SWITCH-1">
          <mxGeometry relative="1" as="geometry" />
        </mxCell><mxCell id="SETA-4" style="edgeStyle=orthogonalEdgeStyle;rounded=0;orthogonalLoop=1;jettySize=auto;html=1;exitX=1;exitY=0.5;exitDx=0;exitDy=0;exitPerimeter=0;entryX=0;entryY=0.5;entryDx=0;entryDy=0;entryPerimeter=0;startArrow=classic;startFill=1;" edge="1" parent="1" source="SWITCH-1" target="L3SWITCH-2">
          <mxGeometry relative="1" as="geometry" />
        </mxCell><mxCell id="DATA-6" value="27/05/2025" style="text;html=1;align=center;verticalAlign=middle;whiteSpace=wrap;rounded=0;" vertex="1" parent="1">
          <mxGeometry x="500" y="120" width="60" height="30" as="geometry" />
        </mxCell><mxCell id="DADOS-7" value="&lt;div&gt;BLOCO IP: 1.1.1.1/1&amp;nbsp;&amp;nbsp;&lt;/div&gt;&lt;div&gt;IP: 1.1.1.3&amp;nbsp;&lt;/div&gt;&lt;div&gt;GATEWAY: 1.1.1.2&amp;nbsp;&lt;/div&gt;&lt;div&gt;MASCARA: 255.0.0.0&lt;/div&gt;&lt;div&gt;VLAN: 12&amp;nbsp;&lt;/div&gt;&lt;div&gt;BANDA: 1 Mbps&lt;/div&gt;" style="text;html=1;align=left;verticalAlign=middle;whiteSpace=wrap;rounded=0;" parent="1" vertex="1">
          <mxGeometry x="-100" y="120" width="260" height="120" as="geometry" />
        </mxCell><mxCell id="TITULO-8" value="1" style="text;html=1;align=center;verticalAlign=middle;rounded=0;labelBackgroundColor=none;textShadow=0;whiteSpace=wrap;strokeColor=light-dark(#ffffff, #a9b8c7);" parent="1" vertex="1">
          <mxGeometry x="0" y="-120" width="475" height="40" as="geometry" />
        </mxCell>
     </root>
    </mxGraphModel>
  </diagram>
</mxfile>